<svg xmlns="http://www.w3.org/2000/svg" viewBox="0 0 24 24" role="img" aria-label="GitHub icon">
  <rect width="24" height="24" rx="4" fill="#ffffff"/>
  <path d="M12 4.4a7.6 7.6 0 0 0-2.4 14.8c.4.1.5-.2.5-.4v-1.4c-2.1.5-2.6-.9-2.6-.9-.3-.8-.8-1-1-1.1-.8-.5.1-.5.1-.5.9.1 1.4.9 1.4.9.8 1.3 2 1 2.5.8.1-.6.3-1 .6-1.2-1.7-.2-3.5-.8-3.5-3.8 0-.8.3-1.5.8-2-.1-.2-.3-1 .1-2.1 0 0 .7-.2 2.2.8.7-.2 1.4-.3 2.1-.3s1.4.1 2.1.3c1.6-1 2.2-.8 2.2-.8.4 1.1.2 1.9.1 2.1.5.5.8 1.2.8 2 0 3-1.8 3.6-3.5 3.8.3.3.6.8.6 1.6v2.3c0 .2.1.5.5.4A7.6 7.6 0 0 0 12 4.4z" fill="#007ea7"/>
</svg>
